<svg width="277" height="33" viewBox="0 0 277 33" fill="none" xmlns="http://www.w3.org/2000/svg">
<path d="M3.48633 4.43262H35.2529C36.0459 4.43262 36.7021 4.67188 37.2217 5.15039C37.5088 5.42383 37.6934 5.64941 37.7754 5.82715C38.0215 6.30566 38.1445 6.70898 38.1445 7.03711V11.877H22.8252V33H18.0674C17.3975 33 16.7686 32.7334 16.1807 32.2002C16.167 32.1865 16.1533 32.166 16.1396 32.1387C16.0986 32.0977 16.0439 32.0361 15.9756 31.9541C15.5791 31.4346 15.3809 30.9014 15.3809 30.3545V11.877H0.594727V8.10352C0.594727 7.13281 0.62207 6.64063 0.676758 6.62695C0.799805 6.08008 1.01172 5.64258 1.3125 5.31445C1.64062 5.02734 1.87988 4.84961 2.03027 4.78125C2.37207 4.54883 2.85742 4.43262 3.48633 4.43262ZM48.7668 4.43262H54.7755C55.9923 4.43262 57.0109 4.93848 57.8312 5.9502C58.05 6.25098 58.3234 6.71582 58.6515 7.34473C58.7062 7.42676 58.7541 7.50879 58.7951 7.59082C58.9181 7.78223 59.9709 9.62793 61.9533 13.1279C62.5138 14.126 63.1564 15.2607 63.881 16.5322C68.3791 24.4756 70.6896 28.5361 70.8127 28.7139L73.2121 33H66.8957C65.2277 33 63.9972 32.2139 63.2043 30.6416C62.6437 29.6846 62.2336 28.9736 61.9738 28.5088C61.755 28.1123 61.632 27.9004 61.6046 27.873H41.9992C41.9718 27.873 41.9377 27.8867 41.8966 27.9141C41.8693 27.9414 41.8488 27.9961 41.8351 28.0781L39.9894 31.3184C39.1554 32.4395 38.048 33 36.6671 33H30.4123C30.3849 33 30.3713 33 30.3713 33C30.3713 32.9863 30.3713 32.9727 30.3713 32.959C33.3927 27.6133 36.0246 22.9785 38.2668 19.0547C40.0441 15.9238 41.4796 13.3945 42.5734 11.4668C44.2687 8.47266 45.1574 6.91406 45.2394 6.79102C45.4582 6.38086 45.6906 6.01855 45.9367 5.7041C46.7296 4.85645 47.673 4.43262 48.7668 4.43262ZM51.7814 10.5234L45.3625 21.8232H58.2004C54.0031 14.4678 51.8634 10.7012 51.7814 10.5234ZM76.513 4.43262H82.5218C83.6019 4.43262 84.4222 4.89746 84.9827 5.82715C85.2152 6.22363 85.3314 6.71582 85.3314 7.30371V33H79.1585C78.4886 33 77.8597 32.7197 77.2718 32.1592C76.7659 31.6396 76.513 30.9834 76.513 30.1904V4.43262ZM102.414 4.43262H124.377C125.389 4.43262 126.189 4.87012 126.777 5.74512C127.037 6.19629 127.166 6.66797 127.166 7.16016V11.8359H102.537C100.951 11.8359 99.6518 12.4785 98.6401 13.7637C97.9975 14.6113 97.6762 15.5615 97.6762 16.6143V20.8184C97.6762 22.0762 98.1206 23.1836 99.0093 24.1406C99.4331 24.5371 99.7749 24.8037 100.035 24.9404C100.281 25.1045 100.554 25.2275 100.855 25.3096C101.429 25.5146 101.867 25.6172 102.167 25.6172H127.105V30.3545C127.105 31.1064 126.77 31.79 126.1 32.4053C125.581 32.8018 125.006 33 124.377 33H102.373C99.8569 33 97.5053 32.2275 95.3178 30.6826C94.9487 30.4229 94.4292 29.9785 93.7593 29.3496C93.062 28.5977 92.5903 28.0098 92.3442 27.5859C91.9341 26.957 91.6264 26.4102 91.4214 25.9453C90.6557 24.3594 90.2729 22.582 90.2729 20.6133V16.8398C90.2729 14.6934 90.7378 12.7588 91.6675 11.0361C91.9136 10.5439 92.2485 9.9834 92.6723 9.35449C92.7817 9.23145 92.8979 9.09473 93.021 8.94434C93.2261 8.69824 93.4585 8.43164 93.7182 8.14453C94.4428 7.43359 95.0307 6.94141 95.4819 6.66797C96.2475 6.12109 97.0063 5.68359 97.7583 5.35547C99.3169 4.74023 100.869 4.43262 102.414 4.43262ZM135.451 4.43262H140.209V12.5947C140.209 13.3057 140.475 13.9346 141.008 14.4814C141.542 15.0146 142.225 15.2812 143.059 15.2812H162.767L162.808 15.2402V4.43262H167.587C168.174 4.43262 168.762 4.68555 169.35 5.19141C169.911 5.73828 170.191 6.41504 170.191 7.22168V30.2725C170.191 31.2432 169.774 32.0156 168.94 32.5898C168.489 32.8633 168.01 33 167.505 33H162.808V25.6582C162.808 25.0703 162.733 24.6328 162.583 24.3457C162.501 24.1406 162.378 23.915 162.214 23.6689C161.639 22.999 160.908 22.6641 160.019 22.6641H140.209V33H135.492C134.74 33 134.084 32.7061 133.523 32.1182C133.045 31.5986 132.805 30.9424 132.805 30.1494V7.30371C132.805 6.16895 133.298 5.31445 134.282 4.74023C134.692 4.53516 135.082 4.43262 135.451 4.43262ZM177.471 4.43262H183.479C184.559 4.43262 185.38 4.89746 185.94 5.82715C186.173 6.22363 186.289 6.71582 186.289 7.30371V33H180.116C179.446 33 178.817 32.7197 178.229 32.1592C177.723 31.6396 177.471 30.9834 177.471 30.1904V4.43262ZM192.912 0.413086H196.747C197.936 0.413086 198.716 0.959961 199.085 2.05371C199.235 2.51855 199.311 3.01758 199.311 3.55078V3.75586C199.311 4.67188 199.119 5.7793 198.736 7.07812C198.477 7.91211 198.189 8.63672 197.875 9.25195C196.877 11.084 195.462 12 193.63 12V11.0771L193.794 10.9746C194.04 10.7969 194.266 10.5713 194.471 10.2979C194.662 9.96973 194.758 9.79199 194.758 9.76465C194.894 9.51855 195.038 9.09473 195.188 8.49316C195.257 8.17871 195.318 7.75488 195.373 7.22168V7.16016C195.373 6.66797 195.291 6.2168 195.127 5.80664H192.912V0.413086ZM211.409 4.43262H231.117C235.027 4.43262 237.577 5.63574 238.767 8.04199C239.409 9.31348 239.731 10.9951 239.731 13.0869V14.2354C239.731 16.833 239.238 18.665 238.254 19.7314C237.762 20.2646 237.331 20.627 236.962 20.8184C236.634 21.0234 236.101 21.2354 235.362 21.4541C234.843 21.5908 234.228 21.7002 233.517 21.7822C232.792 21.8643 231.568 21.9053 229.846 21.9053H215.572C214.656 21.9053 214.109 22.0488 213.932 22.3359C213.822 22.6504 213.768 23.1221 213.768 23.751V25.6992H213.809V25.7402L213.85 25.6992H239.731V27.791C239.731 29.5137 239.04 30.915 237.659 31.9951C237.249 32.2412 236.873 32.4531 236.531 32.6309C235.916 32.877 235.192 33 234.358 33H206.077V24.3457C206.077 22.3359 206.193 20.9346 206.426 20.1416C206.672 19.1299 207.103 18.2617 207.718 17.5371C209.085 15.9785 211.594 15.1992 215.244 15.1992H230.4C231.411 15.1992 231.917 15.083 231.917 14.8506C231.999 14.5908 232.04 14.1875 232.04 13.6406V13.3535C232.04 12.3418 231.931 11.8359 231.712 11.8359C231.521 11.7539 231.151 11.7129 230.605 11.7129H206.303V9.60059C206.303 7.87793 207 6.47656 208.395 5.39648C209.27 4.75391 210.275 4.43262 211.409 4.43262ZM242.929 4.43262H271.209C272.891 4.43262 274.231 5.02051 275.229 6.19629C275.83 6.79785 276.241 7.625 276.459 8.67773V8.80078C276.514 9.0332 276.541 9.25879 276.541 9.47754V11.7129H250.701L250.578 11.7539V13.5176C250.578 14.4336 250.674 15.0078 250.866 15.2402C251.153 15.4316 251.672 15.5273 252.424 15.5273H266.964C269.357 15.5273 271.052 15.6709 272.05 15.958C272.611 16.1084 273.082 16.2861 273.465 16.4912C274.627 17.0381 275.468 17.9609 275.988 19.2598C276.357 20.2852 276.541 21.4883 276.541 22.8691V24.6328C276.541 28.2148 275.407 30.6416 273.137 31.9131C271.824 32.6377 270.074 33 267.887 33H248.22C246.552 33 245.158 32.2891 244.036 30.8672L243.688 30.3135C243.305 29.5479 243.114 28.8027 243.114 28.0781V25.7402H267.374C268.044 25.7402 268.468 25.665 268.646 25.5146C268.783 25.3096 268.851 24.8926 268.851 24.2637V23.5459C268.81 22.7939 268.728 22.418 268.605 22.418C268.359 22.3086 267.921 22.2539 267.292 22.2539H252.137C248.897 22.2539 246.573 21.666 245.164 20.4902C244.358 19.8613 243.742 18.918 243.319 17.6602C243.032 16.5801 242.888 15.3633 242.888 14.0098V4.47363C242.888 4.45996 242.888 4.45312 242.888 4.45312C242.902 4.43945 242.915 4.43262 242.929 4.43262Z" fill="url(#paint0_linear_3_3)"/>
<defs>
<linearGradient id="paint0_linear_3_3" x1="0" y1="18.5" x2="278" y2="18.5" gradientUnits="userSpaceOnUse">
<stop stop-color="#632566"/>
<stop offset="1" stop-color="#C64BCC"/>
</linearGradient>
</defs>
</svg>
